<svg width="1800" height="900" viewBox="0 0 1800 900" fill="none" xmlns="http://www.w3.org/2000/svg">
  <defs>
    <filter id="shadow" x="-20%" y="-20%" width="140%" height="140%">
      <feDropShadow dx="0" dy="2" stdDeviation="8" flood-color="#D8E2EF" flood-opacity="0.7"/>
    </filter>
    <linearGradient id="blueFill" x1="0" y1="0" x2="0" y2="1">
      <stop offset="0%" stop-color="#F7FAFF"/>
      <stop offset="100%" stop-color="#EEF4FB"/>
    </linearGradient>
    <linearGradient id="greenFill" x1="0" y1="0" x2="0" y2="1">
      <stop offset="0%" stop-color="#F8FCF7"/>
      <stop offset="100%" stop-color="#EEF7EC"/>
    </linearGradient>
    <linearGradient id="orangeFill" x1="0" y1="0" x2="0" y2="1">
      <stop offset="0%" stop-color="#FFF9F1"/>
      <stop offset="100%" stop-color="#FFF2E4"/>
    </linearGradient>
    <linearGradient id="purpleFill" x1="0" y1="0" x2="0" y2="1">
      <stop offset="0%" stop-color="#FBFAFF"/>
      <stop offset="100%" stop-color="#F2EEFD"/>
    </linearGradient>
    <marker id="arrowBlue" viewBox="0 0 10 10" refX="9" refY="5" markerWidth="8" markerHeight="8" orient="auto-start-reverse">
      <path d="M0 0L10 5L0 10V0Z" fill="#1B5BBE"/>
    </marker>
    <marker id="arrowGreen" viewBox="0 0 10 10" refX="9" refY="5" markerWidth="8" markerHeight="8" orient="auto-start-reverse">
      <path d="M0 0L10 5L0 10V0Z" fill="#3B6E2D"/>
    </marker>
    <marker id="arrowOrange" viewBox="0 0 10 10" refX="9" refY="5" markerWidth="8" markerHeight="8" orient="auto-start-reverse">
      <path d="M0 0L10 5L0 10V0Z" fill="#E06A00"/>
    </marker>
    <marker id="arrowPurple" viewBox="0 0 10 10" refX="9" refY="5" markerWidth="8" markerHeight="8" orient="auto-start-reverse">
      <path d="M0 0L10 5L0 10V0Z" fill="#6D43BF"/>
    </marker>
    <style>
      .titleBlue { font: 700 28px 'Arial', sans-serif; fill: #1B5BBE; }
      .titleGreen { font: 700 28px 'Arial', sans-serif; fill: #355F2C; }
      .titleOrange { font: 700 30px 'Arial', sans-serif; fill: #D26100; }
      .titlePurple { font: 700 28px 'Arial', sans-serif; fill: #5C3CA9; }
      .mathBlue { font: italic 700 34px 'Times New Roman', serif; fill: #1B5BBE; }
      .mathGreen { font: italic 700 34px 'Times New Roman', serif; fill: #355F2C; }
      .mathOrange { font: italic 700 24px 'Times New Roman', serif; fill: #D26100; }
      .textDark { font: 600 18px 'Arial', sans-serif; fill: #2B2F36; }
      .textSmall { font: 500 14px 'Arial', sans-serif; fill: #2B2F36; }
      .textTiny { font: italic 500 13px 'Arial', sans-serif; fill: #355F2C; }
    </style>
  </defs>

  <rect width="1800" height="900" fill="white"/>

  <!-- Top row -->
  <g filter="url(#shadow)">
    <rect x="30" y="82" width="265" height="165" rx="20" fill="url(#blueFill)" stroke="#1B5BBE" stroke-width="3"/>
  </g>
  <text x="72" y="136" class="titleBlue">Current Task <tspan font-style="italic">T</tspan><tspan dy="6" font-size="20">k</tspan></text>
  <g transform="translate(130 165)" stroke="#1B5BBE" stroke-width="4" fill="none">
    <circle cx="0" cy="0" r="24"/>
    <ellipse cx="0" cy="0" rx="12" ry="24"/>
    <path d="M-24 0H24M-20 -10C-10 -4 10 -4 20 -10M-20 10C-10 4 10 4 20 10"/>
  </g>

  <g filter="url(#shadow)">
    <rect x="350" y="82" width="285" height="165" rx="20" fill="url(#blueFill)" stroke="#1B5BBE" stroke-width="3"/>
  </g>
  <text x="430" y="136" class="titleBlue">Online</text>
  <text x="386" y="175" class="titleBlue">Replay Buffer</text>
  <g transform="translate(458 185)">
    <ellipse cx="0" cy="-28" rx="20" ry="10" fill="#1B5BBE"/>
    <rect x="-20" y="-28" width="40" height="55" fill="#1B5BBE"/>
    <ellipse cx="0" cy="27" rx="20" ry="10" fill="#1B5BBE"/>
    <ellipse cx="0" cy="-10" rx="20" ry="10" fill="#F7FAFF"/>
    <ellipse cx="0" cy="8" rx="20" ry="10" fill="#F7FAFF"/>
  </g>

  <g filter="url(#shadow)">
    <rect x="656" y="82" width="317" height="165" rx="20" fill="url(#blueFill)" stroke="#1B5BBE" stroke-width="3"/>
  </g>
  <text x="721" y="133" class="titleBlue">Current-task</text>
  <text x="734" y="173" class="titleBlue">SAC Loss</text>
  <text x="748" y="214" class="mathBlue">L</text>
  <text x="770" y="199" class="mathBlue" font-size="18">k</text>
  <text x="780" y="214" class="mathBlue">SAC</text>

  <path d="M295 165H348" stroke="#1B5BBE" stroke-width="4" fill="none" marker-end="url(#arrowBlue)"/>
  <path d="M635 165H654" stroke="#1B5BBE" stroke-width="4" fill="none" marker-end="url(#arrowBlue)"/>

  <!-- Bottom row -->
  <g filter="url(#shadow)">
    <rect x="30" y="470" width="265" height="185" rx="20" fill="url(#greenFill)" stroke="#3B6E2D" stroke-width="3"/>
  </g>
  <text x="58" y="528" class="titleGreen">Previous Tasks</text>
  <text x="63" y="592" class="mathGreen">T</text>
  <text x="85" y="574" class="mathGreen" font-size="18">1</text>
  <text x="116" y="592" class="mathGreen">...</text>
  <text x="158" y="592" class="mathGreen">T</text>
  <text x="180" y="574" class="mathGreen" font-size="18">k−1</text>
  <g transform="translate(130 607)" fill="#7BA264">
    <path d="M-38 -8L0 -23L38 -8L0 7L-38 -8Z"/>
    <path d="M-30 5L8 -10L46 5L8 20L-30 5Z" opacity="0.85"/>
    <path d="M-22 18L16 3L54 18L16 33L-22 18Z" opacity="0.7"/>
  </g>

  <g filter="url(#shadow)">
    <rect x="315" y="470" width="200" height="185" rx="20" fill="url(#greenFill)" stroke="#3B6E2D" stroke-width="3"/>
  </g>
  <text x="350" y="528" class="titleGreen">Successful</text>
  <text x="350" y="568" class="titleGreen">Old Rollouts</text>
  <g transform="translate(392 607)" fill="none" stroke="#537E46" stroke-width="4" stroke-linecap="round" stroke-linejoin="round">
    <circle cx="-24" cy="18" r="6" fill="#537E46"/>
    <circle cx="-6" cy="10" r="6" fill="#537E46"/>
    <circle cx="12" cy="3" r="6" fill="#537E46"/>
    <circle cx="30" cy="-12" r="6" fill="#537E46"/>
    <path d="M-24 18L-6 10L12 3L30 -12"/>
    <path d="M30 -12V-34M30 -34L44 -28M30 -34L16 -28"/>
  </g>

  <g filter="url(#shadow)">
    <rect x="552" y="452" width="273" height="203" rx="20" fill="url(#greenFill)" stroke="#3B6E2D" stroke-width="3"/>
  </g>
  <text x="584" y="518" class="titleGreen">Mixed Old-task</text>
  <text x="585" y="558" class="titleGreen">Reference Memory</text>
  <text x="582" y="604" class="textSmall">(s, old_mean, old_log_std, task_id)</text>

  <g filter="url(#shadow)">
    <rect x="845" y="505" width="145" height="125" rx="18" fill="url(#greenFill)" stroke="#3B6E2D" stroke-width="3"/>
  </g>
  <text x="872" y="550" class="titleGreen" font-size="24">BC KL Loss</text>
  <text x="885" y="606" class="mathGreen">L</text>
  <text x="907" y="588" class="mathGreen" font-size="18">k</text>
  <text x="917" y="606" class="mathGreen">KL</text>

  <g filter="url(#shadow)">
    <rect x="581" y="712" width="215" height="98" rx="18" fill="#F8FCF7" stroke="#5D7F4F" stroke-width="3" stroke-dasharray="10 10"/>
  </g>
  <text x="606" y="763" class="titleGreen" font-size="22">Optional Controller /</text>
  <text x="642" y="798" class="titleGreen" font-size="22">Semantic Gate</text>

  <path d="M295 562H313" stroke="#3B6E2D" stroke-width="4" fill="none" marker-end="url(#arrowGreen)"/>
  <path d="M515 562H550" stroke="#3B6E2D" stroke-width="4" fill="none" marker-end="url(#arrowGreen)"/>
  <path d="M825 562H843" stroke="#3B6E2D" stroke-width="4" fill="none" marker-end="url(#arrowGreen)"/>
  <path d="M688 712V659" stroke="#5D7F4F" stroke-width="4" stroke-dasharray="10 10" fill="none" marker-end="url(#arrowGreen)"/>

  <!-- Right side refined -->
  <g filter="url(#shadow)">
    <rect x="973" y="193" width="171" height="92" rx="18" fill="url(#blueFill)" stroke="#1B5BBE" stroke-width="3"/>
  </g>
  <text x="1018" y="237" class="titleBlue" font-size="20">Actor</text>
  <text x="990" y="272" class="titleBlue" font-size="20">SAC Gradient</text>

  <g filter="url(#shadow)">
    <rect x="1055" y="490" width="150" height="98" rx="18" fill="url(#greenFill)" stroke="#3B6E2D" stroke-width="3"/>
  </g>
  <text x="1090" y="532" class="titleGreen" font-size="20">Actor</text>
  <text x="1070" y="567" class="titleGreen" font-size="20">BC Gradient</text>

  <g filter="url(#shadow)">
    <rect x="1264" y="280" width="208" height="244" rx="22" fill="url(#orangeFill)" stroke="#E06A00" stroke-width="3"/>
  </g>
  <g transform="translate(1369 322)" fill="#D26100">
    <circle cx="0" cy="0" r="21"/>
    <circle cx="0" cy="0" r="9" fill="#FFF9F1"/>
    <rect x="-3" y="-33" width="6" height="12" rx="2"/>
    <rect x="-3" y="21" width="6" height="12" rx="2"/>
    <rect x="-33" y="-3" width="12" height="6" rx="2"/>
    <rect x="21" y="-3" width="12" height="6" rx="2"/>
    <rect x="-25" y="-25" width="6" height="12" rx="2" transform="rotate(-45 -25 -25)"/>
    <rect x="19" y="13" width="6" height="12" rx="2" transform="rotate(-45 19 13)"/>
    <rect x="13" y="-25" width="6" height="12" rx="2" transform="rotate(45 13 -25)"/>
    <rect x="-19" y="19" width="6" height="12" rx="2" transform="rotate(45 -19 19)"/>
  </g>
  <text x="1312" y="391" class="titleOrange">Joint</text>
  <text x="1280" y="438" class="titleOrange">Optimization</text>
  <text x="1283" y="505" class="mathOrange">min  L</text>
  <text x="1364" y="490" class="mathOrange" font-size="15">k</text>
  <text x="1370" y="505" class="mathOrange">SAC</text>
  <text x="1431" y="505" class="mathOrange">+</text>
  <text x="1458" y="505" class="mathOrange">λ L</text>
  <text x="1514" y="490" class="mathOrange" font-size="15">k</text>
  <text x="1520" y="505" class="mathOrange">KL</text>
  <text x="1290" y="517" class="mathOrange" font-size="15">θ</text>

  <g filter="url(#shadow)">
    <rect x="1536" y="81" width="264" height="156" rx="20" fill="url(#purpleFill)" stroke="#6D43BF" stroke-width="3"/>
  </g>
  <text x="1607" y="132" class="titlePurple">Critic Update</text>
  <g transform="translate(1678 176)" stroke="#6D43BF" stroke-width="4" fill="none" stroke-linecap="round" stroke-linejoin="round">
    <path d="M-33 24V-12M-33 24H30"/>
    <circle cx="-20" cy="10" r="5" fill="#6D43BF"/>
    <circle cx="-4" cy="-2" r="5" fill="#6D43BF"/>
    <circle cx="12" cy="3" r="5" fill="#6D43BF"/>
    <circle cx="28" cy="-14" r="5" fill="#6D43BF"/>
    <path d="M-20 10L-4 -2L12 3L28 -14"/>
  </g>

  <g filter="url(#shadow)">
    <rect x="1536" y="289" width="264" height="176" rx="20" fill="url(#purpleFill)" stroke="#6D43BF" stroke-width="3"/>
  </g>
  <text x="1605" y="358" class="titlePurple">Updated</text>
  <text x="1563" y="410" class="titlePurple">Shared Backbone</text>
  <g transform="translate(1672 409)" stroke="#6D43BF" stroke-width="4" fill="none" stroke-linecap="round" stroke-linejoin="round">
    <circle cx="0" cy="-18" r="10" fill="#D9CCFB"/>
    <circle cx="-30" cy="6" r="10" fill="#D9CCFB"/>
    <circle cx="30" cy="6" r="10" fill="#D9CCFB"/>
    <circle cx="0" cy="29" r="10" fill="#D9CCFB"/>
    <path d="M0 -8L-22 0M0 -8L22 0M-20 12L0 23M20 12L0 23"/>
  </g>

  <g filter="url(#shadow)">
    <rect x="1536" y="507" width="264" height="233" rx="20" fill="url(#purpleFill)" stroke="#6D43BF" stroke-width="3"/>
  </g>
  <text x="1560" y="566" class="titlePurple" font-size="24">Updated Current-task</text>
  <text x="1598" y="608" class="titlePurple" font-size="24">Head / Regularized</text>
  <text x="1610" y="650" class="titlePurple" font-size="24">Old-task Heads</text>
  <g transform="translate(1668 695)" stroke="#6D43BF" stroke-width="4" fill="none" stroke-linecap="round" stroke-linejoin="round">
    <rect x="-56" y="-12" width="24" height="24" fill="#D9CCFB"/>
    <rect x="-8" y="-12" width="24" height="24" stroke-dasharray="7 6"/>
    <rect x="40" y="-12" width="24" height="24" stroke-dasharray="7 6"/>
    <rect x="88" y="-12" width="24" height="24" stroke-dasharray="7 6"/>
    <path d="M-32 0H-8M16 0H40M64 0H88"/>
  </g>

  <!-- connecting arrows right side -->
  <path d="M973 132H1532" stroke="#1B5BBE" stroke-width="4" fill="none" marker-end="url(#arrowBlue)"/>
  <path d="M973 194H971C965 194 960 199 960 205V239C960 245 965 250 971 250H973" stroke="#1B5BBE" stroke-width="4" fill="none"/>
  <path d="M973 250H971C965 250 960 245 960 239V239C960 245 965 250 971 250H973" stroke="#1B5BBE" stroke-width="4" fill="none" marker-end="url(#arrowBlue)"/>
  <path d="M1144 239H1222C1230 239 1237 246 1237 254V312" stroke="#1B5BBE" stroke-width="4" fill="none" marker-end="url(#arrowBlue)"/>
  <path d="M1205 539H1220C1230 539 1238 531 1238 521V472" stroke="#3B6E2D" stroke-width="4" fill="none" marker-end="url(#arrowGreen)"/>
  <path d="M1472 368H1532" stroke="#6D43BF" stroke-width="4" fill="none" marker-end="url(#arrowPurple)"/>
  <path d="M1472 451H1512C1524 451 1532 443 1532 431" stroke="#6D43BF" stroke-width="4" fill="none"/>
  <path d="M1512 431V377" stroke="#6D43BF" stroke-width="4" fill="none" marker-end="url(#arrowPurple)"/>
  <path d="M1472 451H1512C1524 451 1532 459 1532 471V624" stroke="#6D43BF" stroke-width="4" fill="none" marker-end="url(#arrowPurple)"/>
</svg>
